# xmcd
#
# Track frame offsets:
#	150
#	13264
#	24582
#	35440
#	49153
#	66475
#	76232
#	89617
#	101228
#	114297
#	127726
#	139982
#	153171
#	164976
#	178262
#	191809
#	205751
#	218635
#	231750
#	243215
#	254997
#	266988
#	280905
#	292417
#	306412
#
# Disc length: 4220 seconds
#
# Revision: 2
# Processed by: cddbd v1.5.2PL0 Copyright (c) Steve Scherf et al.
# Submitted via: audiograbber 1.83.01
#
DISCID=8b107a19
DTITLE=Albert King - The Blues
DYEAR=2013
DGENRE=Blues
TTITLE0=Let's Have a Natural Ball
TTITLE1=I Get Evil
TTITLE2=Old Blue Ribbon
TTITLE3=Travelin' To California
TTITLE4=Ooh-Ee-Baby
TTITLE5=This Morning
TTITLE6=Hand Me Down Blues
TTITLE7=Need You By My Side
TTITLE8=Bad Luck Blues
TTITLE9=Don't Throw Your Love On Me Strong
TTITLE10=Blues at Sunrise
TTITLE11=I Walked All Night Long
TTITLE12=I've Made Nights By Myself
TTITLE13=Murder
TTITLE14=I'll Do Anything You Say
TTITLE15=Walking From Door to Door
TTITLE16=Dyna Flow
TTITLE17=Be On Your Merry Way
TTITLE18=Why Are You So Mean to Me
TTITLE19=The Time Has Come
TTITLE20=Wild Woman
TTITLE21=Searchin' for a Woman
TTITLE22=This Funny Feeling
TTITLE23=Had You Told It Like It Was
TTITLE24=Got To Be Some Changes Made
EXTD=
EXTT0=
EXTT1=
EXTT2=
EXTT3=
EXTT4=
EXTT5=
EXTT6=
EXTT7=
EXTT8=
EXTT9=
EXTT10=
EXTT11=
EXTT12=
EXTT13=
EXTT14=
EXTT15=
EXTT16=
EXTT17=
EXTT18=
EXTT19=
EXTT20=
EXTT21=
EXTT22=
EXTT23=
EXTT24=
PLAYORDER=
